<svg viewBox="0 0 400 260" xmlns="http://www.w3.org/2000/svg">
  <defs>
    <linearGradient id="p3" x1="0%" y1="0%" x2="100%" y2="100%">
      <stop offset="0%" stop-color="#0a1f1a"/>
      <stop offset="100%" stop-color="#0d9488"/>
    </linearGradient>
  </defs>
  <rect width="400" height="260" fill="url(#p3)"/>
  <g fill="#eef2f0" opacity="0.9">
    <path d="M140 150 a40 40 0 0 1 0 -78 a52 52 0 0 1 100 8 a34 34 0 0 1 -6 68 z" opacity="0.14"/>
    <path d="M140 150 a40 40 0 0 1 0 -78 a52 52 0 0 1 100 8 a34 34 0 0 1 -6 68 z" fill="none" stroke="#6ee7b7" stroke-width="2.5" opacity="0.85"/>
  </g>
  <g stroke="#6ee7b7" stroke-width="2" opacity="0.6">
    <line x1="180" y1="150" x2="180" y2="185"/>
    <line x1="210" y1="150" x2="210" y2="195"/>
    <line x1="240" y1="150" x2="240" y2="180"/>
  </g>
  <circle cx="180" cy="192" r="4" fill="#6ee7b7"/>
  <circle cx="210" cy="202" r="4" fill="#6ee7b7"/>
  <circle cx="240" cy="187" r="4" fill="#6ee7b7"/>
</svg>
